# xmcd
#
# Track frame offsets: 
#        150
#        21208
#        47171
#        63905
#        80275
#        109650
#        128696
#        150585
#        169438
#        193689
#        213512
#        234446
#        248164
#        273704
#        288247
#
# Disc length: 4159 seconds
#
# Revision: 2
# Processed by: cddbd v1.5.2PL0 Copyright (c) Steve Scherf et al.
# Submitted via: ExactAudioCopy v0.99pb4
#
DISCID=d1103d0f
DTITLE=Smokin' Joe Kubek Band - Served Up Texas Style
DYEAR=2005
DGENRE=Blues
TTITLE0=Can't See For Lookin'
TTITLE1=TV Light
TTITLE2=Damn Traffic
TTITLE3=Natural Born Lover
TTITLE4=Player Got Played
TTITLE5=Texas Cadillac
TTITLE6=Walk With You
TTITLE7=Got My Mind Back
TTITLE8=Walk On
TTITLE9=If You Know What I'm Sayin'
TTITLE10=Corn Palace
TTITLE11=Hands On It
TTITLE12=One Night Affair
TTITLE13=Big Legs
TTITLE14=I'm in an Awful Mood
EXTD=YEAR: 2005
EXTT0=
EXTT1=
EXTT2=
EXTT3=
EXTT4=
EXTT5=
EXTT6=
EXTT7=
EXTT8=
EXTT9=
EXTT10=
EXTT11=
EXTT12=
EXTT13=
EXTT14=
PLAYORDER=
